<?xml version="1.0" encoding="UTF-8" standalone="no"?>
<!-- Uploaded to: SVG Repo, www.svgrepo.com, Generator: SVG Repo Mixer Tools -->

<svg width="32px" height="32px" viewBox="0 0 80 80" xmlns="http://www.w3.org/2000/svg">
  <g id="twitter">
    <path d="m 38.74,16.55 v 1 c 0,10.07 -7.64,21.61 -21.62,21.61 A 21.14,21.14 0 0 1 5.5,35.71 a 12.22,12.22 0 0 0 1.81,0.11 15.25,15.25 0 0 0 9.44,-3.24 7.56,7.56 0 0 1 -7.1,-5.29 6.9,6.9 0 0 0 1.44,0.15 7.53,7.53 0 0 0 2,-0.27 A 7.57,7.57 0 0 1 7,19.72 v -0.1 a 7.42,7.42 0 0 0 3.44,0.94 7.54,7.54 0 0 1 -2.39,-10.06 21.58,21.58 0 0 0 15.68,7.94 6.38,6.38 0 0 1 -0.21,-1.74 7.55,7.55 0 0 1 13.17,-5.31 15.59,15.59 0 0 0 4.83,-1.85 7.65,7.65 0 0 1 -3.39,4.27 15.87,15.87 0 0 0 4.37,-1.26 15.56,15.56 0 0 1 -3.76,4 z" />
  </g>
  <g id="page" transform="matrix(0.17073482,0,0,0.17073004,40.401941,0)">
      <path d="m 161.269,148.48 c -11.207,0 -84.81,0 -96.014,0 -8.082,0 -8.082,13 0,13 11.205,0 84.807,0 96.014,0 8.079,0 8.079,-13 0,-13 z" />
      <path d="m 161.269,182.35 c -11.207,0 -22.409,0 -33.616,0 -8.082,0 -8.082,13 0,13 11.207,0 22.409,0 33.616,0 8.079,0 8.079,-13 0,-13 z" />
      <path d="m 65.254,104.142 c -8.082,0 -8.082,13 0,13 11.205,0 84.807,0 96.014,0 8.079,0 8.079,-13 0,-13 -11.206,0 -84.804,0 -96.014,0 z" />
      <path d="m 161.269,125.152 c -11.207,0 -84.81,0 -96.014,0 -8.082,0 -8.082,13 0,13 11.205,0 84.807,0 96.014,0 8.079,0 8.079,-13 0,-13 z" />
      <path d="m 67.011,62.736 c 11.208,0 22.412,0 33.619,0 8.079,0 8.079,-13 0,-13 -11.207,0 -22.411,0 -33.619,0 -8.073,0 -8.073,13 0,13 z"  />
      <path d="m 67.011,83.749 c 11.208,0 22.412,0 33.619,0 8.079,0 8.079,-13 0,-13 -11.207,0 -22.411,0 -33.619,0 -8.073,0 -8.073,13 0,13 z" />
      <path d="M 173.832,0 H 26.931 V 234.288 H 207.357 V 32.504 Z m 17.925,218.683 H 42.53 V 15.6 h 123.269 v 24.75 h 25.958 z" />
  </g>
</svg>
