<?xml version="1.0" encoding="UTF-8" standalone="no"?>
<!-- Uploaded to: SVG Repo, www.svgrepo.com, Generator: SVG Repo Mixer Tools -->

<svg width="32px" height="32px" viewBox="0 0 80 80" xmlns="http://www.w3.org/2000/svg">
  <g id="twitter">
    <path d="m 38.74,16.55 v 1 c 0,10.07 -7.64,21.61 -21.62,21.61 A 21.14,21.14 0 0 1 5.5,35.71 a 12.22,12.22 0 0 0 1.81,0.11 15.25,15.25 0 0 0 9.44,-3.24 7.56,7.56 0 0 1 -7.1,-5.29 6.9,6.9 0 0 0 1.44,0.15 7.53,7.53 0 0 0 2,-0.27 A 7.57,7.57 0 0 1 7,19.72 v -0.1 a 7.42,7.42 0 0 0 3.44,0.94 7.54,7.54 0 0 1 -2.39,-10.06 21.58,21.58 0 0 0 15.68,7.94 6.38,6.38 0 0 1 -0.21,-1.74 7.55,7.55 0 0 1 13.17,-5.31 15.59,15.59 0 0 0 4.83,-1.85 7.65,7.65 0 0 1 -3.39,4.27 15.87,15.87 0 0 0 4.37,-1.26 15.56,15.56 0 0 1 -3.76,4 z" />
  </g>
  <g id="page" transform="matrix(0.17073482,0,0,0.17073004,40.401941,0)">
      <path d="m 161.269,148.48 c -11.207,0 -84.81,0 -96.014,0 -8.082,0 -8.082,13 0,13 11.205,0 84.807,0 96.014,0 8.079,0 8.079,-13 0,-13 z" />
      <path d="m 161.269,182.35 c -11.207,0 -22.409,0 -33.616,0 -8.082,0 -8.082,13 0,13 11.207,0 22.409,0 33.616,0 8.079,0 8.079,-13 0,-13 z" />
      <path d="m 65.254,104.142 c -8.082,0 -8.082,13 0,13 11.205,0 84.807,0 96.014,0 8.079,0 8.079,-13 0,-13 -11.206,0 -84.804,0 -96.014,0 z" />
      <path d="m 161.269,125.152 c -11.207,0 -84.81,0 -96.014,0 -8.082,0 -8.082,13 0,13 11.205,0 84.807,0 96.014,0 8.079,0 8.079,-13 0,-13 z" />
      <path d="m 67.011,62.736 c 11.208,0 22.412,0 33.619,0 8.079,0 8.079,-13 0,-13 -11.207,0 -22.411,0 -33.619,0 -8.073,0 -8.073,13 0,13 z"  />
      <path d="m 67.011,83.749 c 11.208,0 22.412,0 33.619,0 8.079,0 8.079,-13 0,-13 -11.207,0 -22.411,0 -33.619,0 -8.073,0 -8.073,13 0,13 z" />
      <path d="M 173.832,0 H 26.931 V 234.288 H 207.357 V 32.504 Z m 17.925,218.683 H 42.53 V 15.6 h 123.269 v 24.75 h 25.958 z" />
  </g>
  <g id="telegram" transform="matrix(0.06666667,0,0,0.06666667,17.242937,55.344634)">
    <circle cx="41.35593" cy="69.830505" r="300" />
    <path d="m -55.571568,91.760508 35.5925,98.515002 c 0,0 4.45,9.2175 9.215,9.2175 4.7650002,0 75.6375,-73.73 75.6375,-73.73 l 78.812498,-152.225002 -197.987498,92.7925 z" fill="#c8daea" style="stroke-width:2.5" />
    <path d="m -8.3790678,117.02551 -6.8325002,72.615 c 0,0 -2.86,22.25 19.3850002,0 22.2449998,-22.25 43.5374998,-39.4075 43.5374998,-39.4075" fill="#a9c6d8" style="stroke-width:2.5" />
    <path d="m -54.929068,95.275508 -73.215002,-23.855 c 0,0 -8.75,-3.55 -5.9325,-11.6 0.58,-1.66 1.75,-3.0725 5.25,-5.5 16.2225,-11.3075 300.265,-113.4 300.265,-113.4 0,0 8.02,-2.7025 12.75,-0.905 a 6.915,6.915 0 0 1 4.7125,5.1375 23.3925,23.3925 0 0 1 0.635,6.4625 c -0.0225,1.88 -0.25,3.6225 -0.4225,6.355 -1.73,27.9125 -53.5,236.232502 -53.5,236.232502 0,0 -3.0975,12.19 -14.195,12.6075 a 20.325,20.325 0 0 1 -14.8125,-5.73 C 84.828432,182.34801 9.5584322,131.76301 -7.0740678,120.63801 a 3.175,3.175 0 0 1 -1.365,-2.25 c -0.2325,-1.1725 1.0425,-2.625 1.0425,-2.625 0,0 131.0649978,-116.50000153 134.5524978,-128.730002 0.27,-0.9475 -0.75,-1.415 -2.12,-1 -8.705,3.2025 -159.609998,98.5 -176.264998,109.0175 a 8.025,8.025 0 0 1 -3.7,0.225 z" fill="#ffffff" style="stroke-width:2.5" />
  </g>
</svg>
